<?xml version="1.0" ?><svg viewBox="0 0 22.156 22.167" xmlns="http://www.w3.org/2000/svg"><g data-name="Layer 2" id="Layer_2"><g data-name="Layer 1" id="Layer_1-2"><path d="M1.9,12.186a1.568,1.568,0,0,0,3.135,0A1.568,1.568,0,0,0,1.9,12.186Zm2.463,0a.9.9,0,0,1-1.791,0A.9.9,0,0,1,4.359,12.186Zm14.335-1.568a1.568,1.568,0,0,0,0,3.135A1.568,1.568,0,0,0,18.694,10.618Zm0,2.464a.9.9,0,0,1,0-1.792A.9.9,0,0,1,18.694,13.082Zm-9.184-.9a1.568,1.568,0,0,0,3.136,0A1.568,1.568,0,0,0,9.51,12.186Zm2.464,0a.9.9,0,0,1-1.792,0A.9.9,0,0,1,11.974,12.186Zm-.895-9.274a1.456,1.456,0,0,0,0-2.912A1.456,1.456,0,0,0,11.079,2.912Zm0-2.24a.784.784,0,0,1,0,1.568A.784.784,0,0,1,11.079.672ZM4.807,2.912A1.456,1.456,0,0,0,4.807,0,1.456,1.456,0,0,0,4.807,2.912Zm0-2.24a.784.784,0,0,1,0,1.568A.784.784,0,0,1,4.807.672Zm12.542,2.24a1.456,1.456,0,0,0,0-2.912A1.456,1.456,0,0,0,17.349,2.912Zm0-2.24a.784.784,0,0,1,0,1.568A.784.784,0,0,1,17.349.672Zm4.48,16.352h-.335V15.073c.006-.454-.323-1.787-.965-1.423a.336.336,0,0,0-.047.473c.555.543.279,2.214.34,2.9H16.566c.062-.7-.216-2.352.34-2.9a.336.336,0,0,0-.047-.473c-.642-.364-.97.969-.965,1.423v1.951H13.878V15.073c.006-.453-.323-1.787-.965-1.423a.337.337,0,0,0-.047.473c.555.542.279,2.214.34,2.9H8.95c.062-.7-.216-2.352.34-2.9a.336.336,0,0,0-.047-.473c-.642-.364-.97.969-.965,1.423v1.951H6.263V15.073c.006-.453-.323-1.787-.964-1.423a.336.336,0,0,0-.047.473c.554.543.278,2.214.339,2.9H1.336c.062-.7-.216-2.352.339-2.9a.336.336,0,0,0-.047-.473c-.642-.364-.97.969-.964,1.423v1.951H.327a.336.336,0,0,0,0,.672h.56V21.84a.336.336,0,0,0,.672,0v-1.9H20.6v1.9a.336.336,0,0,0,.672,0V17.7h.56A.336.336,0,0,0,21.829,17.024Zm-20.27,2.24V17.7H20.6v1.568ZM1.671,6.5h.56V9.743a.336.336,0,0,0,.672,0V8.735h16.35c.047.548-.18,1.339.336,1.345a.336.336,0,0,0,.336-.337V6.5c.283-.018.9.117.9-.336s-.614-.319-.9-.336c-.045-.846.208-2.341-.455-3.013a.336.336,0,0,0-.519.426c.493.481.247,1.976.3,2.587H15.445c.056-.619-.192-2.1.3-2.587a.336.336,0,0,0-.046-.473c-.632-.348-.925.867-.928,1.317V5.824H13.655c-.045-.846.208-2.341-.455-3.013a.336.336,0,0,0-.519.426c.493.481.247,1.976.3,2.587H9.175c.056-.619-.193-2.1.3-2.587a.336.336,0,0,0-.047-.473c-.632-.348-.924.867-.927,1.317V5.824H7.383c-.046-.846.208-2.341-.455-3.013a.336.336,0,0,0-.519.426c.493.481.247,1.976.3,2.587H2.9c.055-.619-.193-2.1.3-2.587a.337.337,0,0,0-.047-.473c-.615-.363-.933.88-.927,1.317V5.824h-.56A.336.336,0,0,0,1.671,6.5Zm17.582,0V8.063H2.9V6.5Z" data-name="group class" id="group_class"/></g></g></svg>